<svg width="39" height="39" viewBox="0 0 39 39" fill="none" xmlns="http://www.w3.org/2000/svg">
<g clip-path="url(#clip0)">
<path d="M36.4067 20.0051C36.2498 19.6841 36.2498 19.3159 36.4067 18.9949L37.8613 16.0193C38.6712 14.3624 38.0295 12.3877 36.4005 11.5234L33.4748 9.97101C33.1591 9.80359 32.9427 9.50561 32.8809 9.15377L32.3087 5.89142C31.9901 4.07504 30.3099 2.85447 28.4843 3.11277L25.2049 3.57665C24.8509 3.62662 24.5009 3.51282 24.2442 3.26442L21.8637 0.961609C20.5383 -0.320661 18.4618 -0.320737 17.1364 0.961609L14.7559 3.26465C14.4991 3.51312 14.1491 3.62669 13.7952 3.57688L10.5158 3.11299C8.68956 2.85455 7.00998 4.07527 6.69136 5.89165L6.11916 9.15385C6.05738 9.50576 5.84098 9.80367 5.5254 9.97117L2.59966 11.5235C0.970656 12.3878 0.328987 14.3627 1.13884 16.0195L2.59334 18.995C2.75025 19.3161 2.75025 19.6843 2.59334 20.0053L1.13877 22.9809C0.328911 24.6377 0.970579 26.6124 2.59958 27.4767L5.52533 29.0291C5.84098 29.1965 6.05738 29.4945 6.11916 29.8463L6.69136 33.1087C6.98142 34.7622 8.39927 35.9219 10.0288 35.9217C10.1893 35.9217 10.3522 35.9104 10.5159 35.8873L13.7953 35.4234C14.1489 35.3732 14.4992 35.4872 14.756 35.7356L17.1364 38.0384C17.7993 38.6796 18.6495 39.0002 19.5 39.0001C20.3503 39 21.2011 38.6795 21.8636 38.0384L24.2442 35.7356C24.501 35.4872 24.8511 35.3737 25.2049 35.4234L28.4843 35.8873C30.3107 36.1456 31.9901 34.925 32.3087 33.1086L32.881 29.8464C32.9428 29.4945 33.1592 29.1966 33.4748 29.0291L36.4005 27.4767C38.0295 26.6125 38.6712 24.6376 37.8613 22.9808L36.4067 20.0051ZM35.3462 25.4896L32.4205 27.042C31.4877 27.5371 30.8479 28.4174 30.6655 29.4576L30.0933 32.7199C29.9855 33.3345 29.4173 33.7472 28.7994 33.66L25.5199 33.1961C24.4741 33.048 23.4392 33.3846 22.6802 34.1188L20.2997 36.4215C19.8513 36.8553 19.1488 36.8553 18.7003 36.4215L16.3199 34.1187C15.6784 33.4982 14.8397 33.1619 13.9642 33.1619C13.8038 33.1619 13.6421 33.1731 13.4801 33.1961L10.2007 33.6599C9.58328 33.7472 9.01466 33.3344 8.90681 32.7198L8.33453 29.4575C8.15202 28.4173 7.51233 27.5368 6.57946 27.0419L3.65372 25.4896C3.10254 25.1971 2.88545 24.529 3.15944 23.9685L4.61401 20.9929C5.07774 20.0441 5.07774 18.9559 4.61401 18.0071L3.15944 15.0315C2.88545 14.4709 3.10254 13.8028 3.65372 13.5104L6.57946 11.958C7.51226 11.463 8.15202 10.5826 8.33445 9.5424L8.90665 6.28013C9.01451 5.66558 9.5826 5.25273 10.2006 5.34002L13.48 5.8039C14.5254 5.9519 15.5607 5.61545 16.3197 4.88124L18.7002 2.57842C19.1486 2.1447 19.8511 2.1447 20.2996 2.57842L22.68 4.88124C23.4391 5.61553 24.4742 5.9519 25.5198 5.8039L28.7992 5.34002C29.4167 5.25265 29.9853 5.66558 30.0931 6.28013L30.6653 9.54247C30.8478 10.5827 31.4875 11.4631 32.4204 11.958L35.3461 13.5104C35.8973 13.8028 36.1144 14.4709 35.8404 15.0315L34.3858 18.007C33.9221 18.9557 33.9221 20.0441 34.3858 20.9928L35.8404 23.9683C36.1145 24.529 35.8974 25.1972 35.3462 25.4896Z" fill="#FF5C15"/>
<path d="M27.7177 11.2822C27.2785 10.843 26.5663 10.843 26.1271 11.2822L11.2822 26.1272C10.843 26.5664 10.843 27.2785 11.2822 27.7177C11.5018 27.9374 11.7896 28.0472 12.0774 28.0472C12.3652 28.0472 12.6531 27.9374 12.8726 27.7177L27.7176 12.8728C28.157 12.4335 28.1569 11.7214 27.7177 11.2822Z" fill="#FF5C15"/>
<path d="M15.0013 9.37793C12.7274 9.37793 10.8774 11.2279 10.8774 13.5018C10.8774 15.7756 12.7274 17.6256 15.0013 17.6256C17.2752 17.6256 19.1251 15.7756 19.1251 13.5018C19.1251 11.2279 17.2752 9.37793 15.0013 9.37793ZM15.0013 15.3762C13.9677 15.3762 13.1269 14.5353 13.1269 13.5017C13.1269 12.4681 13.9677 11.6273 15.0013 11.6273C16.0349 11.6273 16.8758 12.4681 16.8758 13.5017C16.8757 14.5353 16.0349 15.3762 15.0013 15.3762Z" fill="#FF5C15"/>
<path d="M23.9986 21.3745C21.7247 21.3745 19.8748 23.2245 19.8748 25.4984C19.8748 27.7722 21.7247 29.6222 23.9986 29.6222C26.2725 29.6222 28.1224 27.7722 28.1224 25.4984C28.1224 23.2245 26.2725 21.3745 23.9986 21.3745ZM23.9986 27.3728C22.965 27.3728 22.1241 26.5319 22.1241 25.4984C22.1241 24.4648 22.965 23.6239 23.9986 23.6239C25.0322 23.6239 25.873 24.4648 25.873 25.4984C25.873 26.5319 25.0322 27.3728 23.9986 27.3728Z" fill="#FF5C15"/>
</g>
<defs>
<clipPath id="clip0">
<rect width="39" height="39" fill="white"/>
</clipPath>
</defs>
</svg>
