<svg width="39" height="39" viewBox="0 0 39 39" fill="none" xmlns="http://www.w3.org/2000/svg">
<path d="M13 27.95H11.7C11.3411 27.95 11.05 28.241 11.05 28.6C11.05 28.9589 11.3411 29.25 11.7 29.25H13C13.359 29.25 13.6501 28.9589 13.6501 28.6C13.6501 28.241 13.359 27.95 13 27.95Z" fill="#FF5C15"/>
<path d="M31.2 27.95H15.6C15.241 27.95 14.95 28.241 14.95 28.6C14.95 28.9589 15.241 29.25 15.6 29.25H31.2C31.5589 29.25 31.85 28.9589 31.85 28.6C31.85 28.241 31.5589 27.95 31.2 27.95Z" fill="#FF5C15"/>
<path d="M13 24.05H11.7C11.3411 24.05 11.05 24.3411 11.05 24.7001C11.05 25.059 11.3411 25.3501 11.7 25.3501H13C13.359 25.3501 13.6501 25.059 13.6501 24.7001C13.6501 24.3411 13.359 24.05 13 24.05Z" fill="#FF5C15"/>
<path d="M31.2 24.05H15.6C15.241 24.05 14.95 24.3411 14.95 24.7001C14.95 25.059 15.241 25.3501 15.6 25.3501H31.2C31.5589 25.3501 31.85 25.059 31.85 24.7001C31.85 24.3411 31.5589 24.05 31.2 24.05Z" fill="#FF5C15"/>
<path d="M13 20.15H11.7C11.3411 20.15 11.05 20.4411 11.05 20.8C11.05 21.159 11.3411 21.45 11.7 21.45H13C13.359 21.45 13.6501 21.159 13.6501 20.8C13.6501 20.4411 13.359 20.15 13 20.15Z" fill="#FF5C15"/>
<path d="M31.2 20.15H15.6C15.241 20.15 14.95 20.4411 14.95 20.8C14.95 21.159 15.241 21.45 15.6 21.45H31.2C31.5589 21.45 31.85 21.159 31.85 20.8C31.85 20.4411 31.5589 20.15 31.2 20.15Z" fill="#FF5C15"/>
<path d="M13 16.25H11.7C11.3411 16.25 11.05 16.541 11.05 16.9C11.05 17.259 11.3411 17.55 11.7 17.55H13C13.359 17.55 13.6501 17.259 13.6501 16.9C13.6501 16.541 13.359 16.25 13 16.25Z" fill="#FF5C15"/>
<path d="M31.2 16.25H15.6C15.241 16.25 14.95 16.541 14.95 16.9C14.95 17.259 15.241 17.55 15.6 17.55H31.2C31.5589 17.55 31.85 17.259 31.85 16.9C31.85 16.541 31.5589 16.25 31.2 16.25Z" fill="#FF5C15"/>
<path d="M13 12.35H11.7C11.3411 12.35 11.05 12.641 11.05 13C11.05 13.3589 11.3411 13.65 11.7 13.65H13C13.359 13.65 13.6501 13.3589 13.6501 13C13.6501 12.641 13.359 12.35 13 12.35Z" fill="#FF5C15"/>
<path d="M31.2 12.35H15.6C15.241 12.35 14.95 12.641 14.95 13C14.95 13.3589 15.241 13.65 15.6 13.65H31.2C31.5589 13.65 31.85 13.3589 31.85 13C31.85 12.641 31.5589 12.35 31.2 12.35Z" fill="#FF5C15"/>
<path d="M35.7415 9.70905C35.7383 9.65209 35.7272 9.59587 35.7084 9.542C35.7012 9.5212 35.696 9.50105 35.6869 9.4809C35.6553 9.41021 35.6113 9.3457 35.5569 9.29045L26.4569 0.19045C26.4017 0.136094 26.3372 0.0920562 26.2665 0.06045C26.2463 0.05135 26.2262 0.04615 26.2061 0.039C26.1517 0.0203125 26.0951 0.0089375 26.0377 0.0052C26.0266 0.00715 26.0143 0 26 0H7.8C7.44104 0 7.15 0.291037 7.15 0.65V2.6H3.9C3.54104 2.6 3.25 2.89104 3.25 3.25V38.35C3.25 38.709 3.54104 39 3.9 39H31.2C31.559 39 31.85 38.709 31.85 38.35V35.1H35.1C35.459 35.1 35.75 34.809 35.75 34.45V9.75C35.75 9.7357 35.7428 9.72335 35.7415 9.70905ZM26.65 2.2191L33.5309 9.1H26.65V2.2191ZM30.55 37.7H4.55V3.9H7.15V34.45C7.15 34.809 7.44104 35.1 7.8 35.1H30.55V37.7ZM34.45 33.8H8.45V1.3H25.35V9.75C25.35 10.109 25.641 10.4 26 10.4H34.45V33.8Z" fill="#FF5C15"/>
<path d="M15.6001 5.84998H11.7C11.3411 5.84998 11.05 6.14101 11.05 6.49998V10.4C11.05 10.7589 11.3411 11.05 11.7 11.05H15.6001C15.959 11.05 16.2501 10.7589 16.2501 10.4V6.49998C16.2501 6.14101 15.959 5.84998 15.6001 5.84998ZM14.9501 9.74997H12.35V7.14998H14.9501V9.74997Z" fill="#FF5C15"/>
</svg>
