<?xml version="1.0" standalone="no"?>
<!DOCTYPE svg PUBLIC "-//W3C//DTD SVG 20010904//EN"
 "http://www.w3.org/TR/2001/REC-SVG-20010904/DTD/svg10.dtd">
<svg version="1.0" xmlns="http://www.w3.org/2000/svg"
 width="1024.000000pt" height="1024.000000pt" viewBox="0 0 1024.000000 1024.000000"
 preserveAspectRatio="xMidYMid meet">
<metadata>
Created by potrace 1.16, written by Peter Selinger 2001-2019
</metadata>
<g transform="translate(0.000000,1024.000000) scale(0.100000,-0.100000)"
fill="#000000" stroke="none">
<path d="M0 5120 l0 -5120 5120 0 5120 0 0 5120 0 5120 -5120 0 -5120 0 0
-5120z m3455 3117 c401 -84 766 -297 1011 -590 178 -212 282 -420 342 -687
l26 -115 3 -2539 c2 -1642 0 -2558 -6 -2592 -25 -135 -128 -267 -259 -332
l-76 -37 -235 0 c-226 0 -238 1 -290 24 -115 49 -201 136 -259 257 l-27 59 -3
1748 c-1 1155 -6 1747 -12 1747 -6 0 -43 -9 -83 -20 -367 -103 -783 -80 -1156
64 -297 115 -602 340 -745 550 l-26 39 0 871 c0 1011 -18 878 138 1038 266
275 588 446 972 518 147 27 162 28 375 25 156 -3 211 -8 310 -28z m4050 -1
c331 -67 635 -220 870 -435 69 -63 184 -190 201 -223 12 -24 14 -158 12 -906
l-3 -879 -39 -49 c-214 -266 -558 -485 -917 -585 -298 -82 -670 -82 -966 1
-40 11 -77 20 -83 20 -6 0 -11 -592 -12 -1747 l-3 -1748 -27 -59 c-58 -121
-144 -208 -259 -257 -52 -23 -64 -24 -290 -24 l-235 0 -76 37 c-131 65 -234
197 -259 332 -6 34 -8 950 -6 2592 l3 2539 26 115 c63 277 177 501 366 715
240 272 599 480 962 556 155 33 215 38 420 34 158 -3 218 -9 315 -29z"/>
<path d="M2854 7965 c-180 -27 -368 -92 -526 -183 -135 -78 -291 -205 -350
-286 l-28 -39 0 -779 0 -780 68 -70 c303 -316 740 -473 1212 -438 179 14 430
77 430 108 0 39 -67 115 -129 147 -18 9 -68 20 -111 24 -123 13 -177 65 -168
163 11 110 108 152 262 112 193 -50 357 -204 432 -409 18 -48 19 -125 24
-1688 l5 -1638 285 0 285 0 3 2228 c3 2319 2 2391 -39 2550 -132 518 -581 895
-1164 978 -122 18 -368 17 -491 0z m791 -398 c205 -103 382 -274 494 -478 47
-86 52 -135 21 -187 -31 -50 -76 -74 -133 -69 -66 6 -94 30 -147 126 -83 152
-200 268 -339 337 -110 54 -151 99 -151 164 0 57 50 123 106 140 39 12 78 3
149 -33z m-967 -613 c82 -34 132 -110 132 -199 0 -193 -228 -287 -365 -151
-103 104 -76 274 55 343 51 27 123 30 178 7z"/>
<path d="M3970 1820 c0 -113 16 -155 64 -175 47 -20 408 -21 445 -2 53 27 66
60 66 165 l0 97 -287 3 -288 2 0 -90z"/>
<path d="M6895 7965 c-575 -85 -1023 -464 -1154 -978 -41 -158 -42 -245 -39
-2555 l3 -2223 285 0 285 1 5 1637 c5 1563 6 1640 24 1688 75 204 239 359 432
409 114 30 180 19 233 -38 34 -36 40 -118 12 -163 -31 -49 -63 -65 -150 -73
-110 -12 -168 -45 -224 -130 -30 -44 -23 -54 66 -82 303 -98 672 -97 977 3 82
27 238 100 305 141 87 55 207 153 278 226 l67 70 0 785 0 786 -56 61 c-209
225 -523 386 -847 434 -130 19 -374 20 -502 1z m-105 -384 c39 -27 70 -80 70
-118 0 -68 -38 -112 -140 -162 -149 -72 -265 -186 -350 -342 -52 -96 -91 -129
-154 -129 -77 0 -146 67 -146 142 0 77 141 292 266 408 102 93 261 195 344
221 33 10 79 2 110 -20z m957 -632 c135 -65 163 -239 57 -346 -136 -135 -364
-40 -364 152 0 159 165 263 307 194z"/>
<path d="M5703 1894 c-3 -8 -3 -54 0 -101 5 -91 21 -126 68 -150 36 -19 398
-18 444 1 51 22 65 59 65 171 l0 95 -285 0 c-251 0 -286 -2 -292 -16z"/>
</g>
</svg>
