<?xml version="1.0" standalone="no"?>
<!DOCTYPE svg PUBLIC "-//W3C//DTD SVG 20010904//EN"
 "http://www.w3.org/TR/2001/REC-SVG-20010904/DTD/svg10.dtd">
<svg version="1.0" xmlns="http://www.w3.org/2000/svg"
 width="1024.000000pt" height="1024.000000pt" viewBox="0 0 1024.000000 1024.000000"
 preserveAspectRatio="xMidYMid meet">
<metadata>
Created by potrace 1.16, written by Peter Selinger 2001-2019
</metadata>
<g transform="translate(0.000000,1024.000000) scale(0.100000,-0.100000)"
fill="#000000" stroke="none">
<path d="M4665 10225 c-653 -60 -1261 -232 -1835 -520 -557 -279 -1022 -626
-1457 -1090 -708 -753 -1173 -1718 -1323 -2742 -68 -469 -68 -1037 0 -1506
211 -1440 1031 -2723 2256 -3530 715 -471 1508 -746 2371 -822 219 -19 667
-19 886 0 420 37 800 115 1187 245 699 234 1358 629 1884 1130 459 436 794
886 1071 1440 295 587 472 1228 525 1894 13 166 13 626 0 792 -92 1168 -570
2256 -1363 3099 -298 317 -581 556 -933 788 -715 471 -1508 746 -2371 822
-206 18 -698 18 -898 0z m-162 -1891 c40 -8 118 -38 175 -65 136 -66 230 -155
288 -274 l39 -80 3 -615 c2 -464 0 -621 -9 -637 -9 -17 -21 -23 -49 -23 -20 0
-41 5 -48 12 -9 9 -12 157 -12 602 0 629 -1 640 -50 735 -51 101 -195 204
-331 236 -82 19 -265 19 -347 0 -75 -18 -149 -53 -219 -106 l-53 -40 0 -267 0
-268 38 -36 c116 -110 324 -166 506 -135 49 9 94 21 100 27 17 17 -27 48 -80
56 -60 9 -85 41 -60 79 40 61 188 12 252 -84 l25 -38 -1 -373 c0 -257 -4 -378
-11 -387 -14 -16 -81 -17 -97 -1 -9 9 -12 95 -12 323 l0 312 -67 -15 c-84 -17
-271 -11 -358 13 -93 25 -213 88 -287 149 l-68 56 0 314 0 314 53 47 c89 79
217 143 342 170 84 19 251 18 338 -1z m1632 -38 c99 -32 197 -86 269 -149 l56
-48 0 -314 0 -315 -67 -56 c-75 -61 -195 -124 -288 -149 -87 -24 -274 -30
-357 -13 l-68 15 0 -312 c0 -228 -3 -314 -12 -323 -16 -16 -83 -15 -97 1 -7 9
-11 130 -11 387 l-1 373 25 38 c45 68 119 109 197 109 30 0 42 -6 55 -25 25
-38 0 -70 -60 -79 -53 -8 -97 -39 -80 -56 6 -6 51 -18 100 -27 182 -31 390 25
507 135 l37 36 0 268 0 267 -52 40 c-71 53 -145 88 -220 106 -82 19 -265 19
-347 0 -136 -32 -280 -135 -331 -236 -49 -95 -50 -106 -50 -735 0 -445 -3
-593 -12 -602 -7 -7 -28 -12 -48 -12 -28 0 -40 6 -49 23 -9 16 -11 173 -9 637
l3 615 39 80 c76 156 248 285 447 336 111 28 315 21 424 -15z m-1567 -195 c58
-30 120 -83 157 -136 40 -56 42 -68 15 -95 -35 -35 -65 -26 -111 33 -43 55
-99 103 -133 113 -51 16 -71 58 -40 88 21 21 67 20 112 -3z m1206 -17 c31 -30
11 -72 -40 -88 -34 -10 -90 -58 -133 -113 -46 -59 -76 -68 -111 -33 -27 27
-25 39 14 94 81 115 223 188 270 140z m-1587 -193 c17 -11 34 -28 37 -39 10
-32 -11 -71 -48 -89 -31 -14 -39 -15 -73 -2 -63 24 -72 103 -15 133 37 20 61
20 99 -3z m1953 -16 c59 -31 51 -109 -13 -134 -34 -13 -42 -12 -73 2 -37 18
-58 57 -48 89 7 22 60 58 87 58 10 0 31 -7 47 -15z m-1250 -1685 c294 -31 481
-155 526 -349 17 -70 20 -1077 4 -1162 -36 -189 -198 -313 -461 -355 -144 -23
-439 -15 -556 15 -221 56 -354 178 -382 351 -7 39 -11 265 -11 570 0 546 5
600 54 684 37 63 117 133 197 171 149 71 389 100 629 75z m-2540 -145 l0 -135
-240 0 -240 0 0 -790 0 -790 -235 0 -235 0 0 790 0 790 -245 0 -245 0 0 135 0
135 720 0 720 0 0 -135z m950 125 c292 -21 438 -92 514 -250 l31 -65 0 -175
c0 -171 -1 -176 -28 -235 -43 -91 -111 -153 -213 -194 -40 -15 -45 -20 -29
-25 69 -22 172 -85 202 -124 60 -79 73 -146 73 -381 0 -215 9 -301 35 -353 8
-17 15 -33 15 -35 0 -1 -106 -3 -235 -3 l-234 0 -18 33 c-16 28 -19 68 -23
297 -5 249 -7 268 -27 307 -45 84 -127 113 -320 113 l-123 0 0 -375 0 -375
-230 0 -230 0 0 925 0 925 353 0 c193 0 413 -5 487 -10z m3550 -125 l0 -135
-380 0 -380 0 0 -275 0 -275 300 0 300 0 0 -135 0 -135 -300 0 -300 0 0 -380
0 -380 -235 0 -235 0 0 925 0 925 615 0 615 0 0 -135z m590 -790 l0 -925 -235
0 -235 0 0 925 0 925 235 0 235 0 0 -925z m815 588 c94 -183 173 -335 176
-337 2 -3 85 148 183 335 l180 339 214 0 c200 0 214 -1 208 -17 -4 -10 -113
-213 -242 -451 l-235 -434 247 -451 c136 -249 254 -462 262 -474 l14 -23 -248
0 -249 0 -180 346 c-99 190 -185 353 -191 361 -8 12 -49 -58 -200 -346 l-189
-361 -217 0 c-120 0 -218 2 -218 5 0 2 115 214 255 470 140 255 255 468 255
473 0 5 -108 208 -240 451 -132 244 -240 445 -240 447 0 2 109 3 241 2 l242
-3 172 -332z m1045 -1928 l0 -45 -4170 0 -4170 0 0 45 0 45 4170 0 4170 0 0
-45z m-5724 -458 c127 -33 195 -105 202 -213 l4 -64 -121 0 -121 0 0 40 c0 85
-31 110 -141 110 -65 0 -73 -2 -100 -29 -33 -33 -37 -71 -15 -124 19 -47 69
-87 217 -173 144 -85 229 -156 261 -218 42 -81 22 -202 -44 -263 -108 -101
-415 -123 -578 -41 -92 47 -123 95 -128 194 l-4 74 121 0 121 0 0 -54 c0 -71
26 -104 93 -117 139 -26 221 51 171 157 -22 46 -73 86 -231 179 -137 81 -219
151 -249 214 -11 22 -18 60 -17 96 0 134 90 217 267 246 66 10 227 3 292 -14z
m1686 -7 c79 -24 133 -63 166 -119 l27 -46 0 -330 0 -330 -28 -47 c-58 -99
-171 -142 -367 -142 -196 0 -309 43 -367 142 l-28 47 0 330 0 330 28 48 c61
104 199 151 410 141 54 -3 126 -13 159 -24z m-642 -60 l0 -70 -140 0 -140 0 0
-440 0 -440 -125 0 -125 0 0 440 0 440 -140 0 -140 0 0 70 0 70 405 0 405 0 0
-70z m1541 54 c80 -18 142 -59 170 -114 24 -44 27 -212 5 -263 -16 -39 -58
-78 -110 -104 l-38 -20 33 -13 c56 -22 88 -49 111 -93 19 -36 23 -65 28 -202
3 -88 10 -168 14 -177 8 -17 -2 -18 -122 -18 l-130 0 -11 31 c-6 18 -11 91
-11 163 0 201 -20 224 -187 225 l-83 1 0 -210 0 -210 -130 0 -130 0 0 510 0
510 261 0 c202 0 276 -4 330 -16z m1029 -54 l0 -70 -230 0 -230 0 0 -145 0
-145 185 0 185 0 0 -70 0 -70 -185 0 -185 0 0 -150 0 -150 230 0 230 0 0 -75
0 -75 -355 0 -355 0 0 510 0 510 355 0 355 0 0 -70z"/>
<path d="M4605 5917 c-63 -21 -93 -45 -110 -90 -14 -37 -15 -110 -13 -594 3
-629 -3 -584 94 -633 42 -21 63 -25 144 -25 81 0 102 4 145 25 28 14 60 40 72
59 l23 34 0 556 c0 637 4 605 -86 651 -40 20 -66 25 -139 27 -53 2 -106 -3
-130 -10z"/>
<path d="M2920 5630 l0 -282 158 4 c144 3 161 5 206 28 85 42 91 57 94 235 4
192 -7 228 -84 266 -44 22 -64 24 -211 27 l-163 4 0 -282z"/>
<path d="M4974 3321 c-53 -23 -54 -32 -54 -367 0 -297 1 -313 20 -337 27 -35
102 -51 170 -36 33 7 57 19 70 36 19 24 20 40 20 339 l0 313 -24 28 c-22 25
-31 28 -103 30 -43 2 -88 -1 -99 -6z"/>
<path d="M5830 3159 l0 -162 90 6 c154 11 180 34 180 162 0 131 -27 155 -175
155 l-95 0 0 -161z"/>
</g>
</svg>
