<svg width="39" height="39" viewBox="0 0 39 39" fill="none" xmlns="http://www.w3.org/2000/svg">
<path d="M34.3777 32.2795C34.2911 26.9792 28.8719 25.4132 24.9149 24.2698C24.4532 24.1364 24.0092 24.0081 23.5931 23.88V21.6935C24.4021 21.1864 25.1109 20.5338 25.6828 19.7726H28.0932C29.2727 19.7726 30.2324 18.8129 30.2324 17.6334V15.0439C30.3753 14.7105 30.4548 14.3437 30.4548 13.9585V13.1531C30.4548 12.7683 30.3753 12.4017 30.2324 12.0686V10.7327C30.2324 4.81469 25.4178 0 19.4999 0C13.5832 0 8.76964 4.81469 8.76964 10.7327V12.0304C8.76964 12.0406 8.77079 12.0504 8.77117 12.0606C8.62598 12.3959 8.54509 12.7652 8.54509 13.1532V13.9586C8.54509 15.481 9.78273 16.7196 11.304 16.7196H11.9335C12.3695 18.8104 13.653 20.5936 15.4068 21.6931V23.88C14.9906 24.0081 14.5467 24.1364 14.085 24.2698C10.128 25.4132 4.70883 26.9793 4.62215 32.2795C4.62207 32.2837 4.62207 32.2878 4.62207 32.292V38.2383C4.62207 38.659 4.96317 39 5.38379 39H7.64214C8.06277 39 8.40387 38.659 8.40387 38.2383C8.40387 37.8176 8.06277 37.4766 7.64214 37.4766H6.14544V32.2983C6.17751 30.4491 7.02698 29.0628 8.81862 27.9358C10.0009 27.1922 11.4463 26.6623 12.871 26.2191L14.7114 29.8048C14.9165 30.2045 15.4417 30.3403 15.815 30.0885L16.6356 29.5349L17.3401 32.1829L16.133 37.4765H14.4822C14.0616 37.4765 13.7205 37.8175 13.7205 38.2382C13.7205 38.6589 14.0616 38.9999 14.4822 38.9999H33.6161C34.0367 38.9999 34.3778 38.6589 34.3778 38.2382V32.2919C34.3778 32.2878 34.3778 32.2837 34.3777 32.2795ZM24.492 25.7333C24.5422 25.7478 24.5932 25.7626 24.6438 25.7773L23.327 28.3453L20.8627 26.6836L22.9507 25.2753C23.4358 25.4279 23.9516 25.5772 24.492 25.7333ZM19.5005 27.6025L21.0279 28.6325L20.2897 31.4072H18.7102L17.9722 28.6334L19.5005 27.6025ZM19.5003 25.765L16.9301 24.0319V22.4283C17.7346 22.7128 18.5992 22.8689 19.4999 22.8689C20.4005 22.8689 21.2652 22.7133 22.0696 22.4288V24.0319L19.5003 25.765ZM25.7056 10.8721C25.6952 10.8654 25.6848 10.8588 25.6744 10.8522C24.1114 9.85721 22.7615 8.99791 20.6463 9.6031C20.6267 9.60874 20.6072 9.61514 20.5881 9.6223C20.1396 9.79071 19.7319 9.9477 19.3375 10.0995C16.9287 11.0268 15.6135 11.5332 13.2942 11.4679V10.858C13.2942 7.436 16.0781 4.65206 19.4999 4.65206C22.9217 4.65206 25.7055 7.436 25.7055 10.858V10.8721H25.7056ZM28.7089 17.6334C28.7089 17.973 28.4327 18.2492 28.0932 18.2492H26.5752C26.7895 17.7633 26.9556 17.2515 27.0665 16.7196H27.696C28.0536 16.7196 28.3951 16.6504 28.709 16.5259V17.6334H28.7089ZM28.9314 13.9585C28.9314 14.6409 28.3772 15.1961 27.6959 15.1961H27.2284C27.2285 15.1772 27.2291 11.9176 27.2291 11.9176H27.696C28.3772 11.9176 28.9314 12.4718 28.9314 13.1531V13.9585H28.9314ZM11.304 15.1962C10.6228 15.1962 10.0685 14.641 10.0685 13.9586V13.1532C10.0685 12.4719 10.6227 11.9177 11.304 11.9177H11.7708C11.7708 11.9177 11.7714 15.1773 11.7716 15.1962H11.304ZM11.7851 10.3941H11.3039C10.9478 10.3941 10.6077 10.4627 10.2949 10.5861C10.3736 5.5755 14.4723 1.52344 19.4999 1.52344C24.5291 1.52344 28.6289 5.57595 28.707 10.5869C28.3937 10.463 28.0528 10.3941 27.6959 10.3941H27.2147C26.974 6.34727 23.606 3.12862 19.4999 3.12862C15.3938 3.12862 12.0258 6.34735 11.7851 10.3941ZM13.3401 15.8806C13.34 15.8798 13.3398 15.8791 13.3397 15.8783C13.3109 15.6359 13.2943 15.3897 13.2943 15.1396V12.9913C15.9004 13.0548 17.4549 12.4567 19.8848 11.5213C20.2675 11.374 20.663 11.2218 21.0939 11.0597C22.5328 10.6581 23.3607 11.1853 24.8563 12.1374C25.1158 12.3026 25.4005 12.4836 25.7056 12.6696V15.1396C25.7056 16.2724 25.3991 17.3342 24.8669 18.2493H19.4999C19.0793 18.2493 18.7382 18.5903 18.7382 19.011C18.7382 19.4317 19.0793 19.7727 19.4999 19.7727H23.6227C22.5257 20.7501 21.0813 21.3455 19.4999 21.3455C16.329 21.3454 13.7076 18.9542 13.3401 15.8806ZM15.6747 28.3454L14.3565 25.7771C14.4069 25.7626 14.4578 25.7478 14.5079 25.7333C15.0483 25.5772 15.5641 25.4279 16.0493 25.2752L18.1381 26.6838L15.6747 28.3454ZM17.6956 37.4766L18.7322 32.9306H20.2679L21.3061 37.4766H17.6956ZM32.8544 37.4766H22.8688L21.6598 32.1828L22.3646 29.5339L23.1872 30.0885C23.5606 30.3403 24.0858 30.2045 24.2909 29.8046L26.1292 26.2192C27.5539 26.6625 28.9991 27.1922 30.1813 27.9358C31.9729 29.0627 32.8225 30.4491 32.8545 32.2983V37.4766H32.8544Z" fill="#FF5C15"/>
<path d="M29.8463 33.6677H26.0074C25.5868 33.6677 25.2457 34.0087 25.2457 34.4294C25.2457 34.8501 25.5868 35.1912 26.0074 35.1912H29.8463C30.2669 35.1912 30.608 34.8501 30.608 34.4294C30.608 34.0087 30.267 33.6677 29.8463 33.6677Z" fill="#FF5C15"/>
<path d="M11.0623 37.4766C10.6416 37.4766 10.3005 37.8176 10.3005 38.2383C10.3005 38.659 10.6416 39 11.0623 39H11.0644C11.485 39 11.825 38.659 11.825 38.2383C11.825 37.8176 11.4829 37.4766 11.0623 37.4766Z" fill="#FF5C15"/>
</svg>
