<svg width="39" height="39" viewBox="0 0 39 39" fill="none" xmlns="http://www.w3.org/2000/svg">
<path d="M34.8388 7.46002H36.0438C36.4641 7.46002 36.805 7.11915 36.805 6.6988C36.805 6.27846 36.4641 5.93759 36.0438 5.93759H33.1512C32.7308 5.93759 32.39 6.27846 32.39 6.6988V9.59144C32.39 10.0118 32.7308 10.3527 33.1512 10.3527C33.5715 10.3527 33.9124 10.0118 33.9124 9.59144V8.75387C36.2221 11.846 37.4776 15.5978 37.4776 19.5C37.4776 29.4129 29.4129 37.4776 19.5 37.4776C9.5871 37.4776 1.52244 29.4129 1.52244 19.5C1.52244 9.5871 9.5871 1.52244 19.5 1.52244C20.2331 1.52244 20.971 1.56697 21.6932 1.65474C22.11 1.70513 22.4901 1.40833 22.5408 0.990955C22.5915 0.573655 22.2944 0.194111 21.877 0.143414C21.094 0.0482613 20.2943 0 19.5 0C14.2914 0 9.39443 2.02834 5.71143 5.71143C2.02834 9.39443 0 14.2914 0 19.5C0 24.7086 2.02834 29.6056 5.71143 33.2886C9.39443 36.9717 14.2914 39 19.5 39C24.7086 39 29.6056 36.9717 33.2886 33.2886C36.9717 29.6056 39 24.7086 39 19.5C39 15.1046 37.5316 10.8851 34.8388 7.46002Z" fill="#FF5C15"/>
<path d="M8.25713 11.4953C7.90187 11.2705 7.43166 11.3763 7.20672 11.7313C5.46893 14.476 4.69965 17.7768 5.0406 21.0257C5.38657 24.3229 6.87057 27.4321 9.21923 29.7809C12.0536 32.6153 15.7768 34.0325 19.5001 34.0325C23.2234 34.0325 26.9465 32.6154 29.781 29.7809C35.4499 24.112 35.4499 14.888 29.781 9.21923C27.4359 6.87422 24.3317 5.39075 21.0401 5.04211C17.7971 4.69842 14.4999 5.4617 11.7564 7.19096C11.4007 7.41514 11.2942 7.88519 11.5183 8.24083C11.7424 8.59655 12.2125 8.70304 12.5681 8.47894C17.7397 5.2194 24.375 5.96639 28.7044 10.2957C33.7797 15.371 33.7797 23.629 28.7044 28.7043C23.6292 33.7796 15.371 33.7796 10.2958 28.7043C6.0263 24.4348 5.26813 17.6391 8.49311 12.5458C8.71789 12.1906 8.61231 11.7203 8.25713 11.4953Z" fill="#FF5C15"/>
<path d="M29.396 20.2735H30.3347C30.7551 20.2735 31.0959 19.9327 31.0959 19.5123C31.0959 19.092 30.7551 18.7511 30.3347 18.7511H29.396C28.9756 18.7511 28.6348 19.092 28.6348 19.5123C28.6348 19.9327 28.9756 20.2735 29.396 20.2735Z" fill="#FF5C15"/>
<path d="M7.90417 19.4877C7.90417 19.908 8.24505 20.2489 8.66539 20.2489H9.60413C10.0245 20.2489 10.3653 19.908 10.3653 19.4877C10.3653 19.0673 10.0245 18.7264 9.60413 18.7264H8.66539C8.24505 18.7264 7.90417 19.0672 7.90417 19.4877Z" fill="#FF5C15"/>
<path d="M20.2735 9.60413V8.66539C20.2735 8.24505 19.9327 7.90417 19.5123 7.90417C19.092 7.90417 18.7511 8.24505 18.7511 8.66539V9.60413C18.7511 10.0245 19.092 10.3653 19.5123 10.3653C19.9327 10.3653 20.2735 10.0245 20.2735 9.60413Z" fill="#FF5C15"/>
<path d="M18.7264 29.396V30.3347C18.7264 30.7551 19.0673 31.0959 19.4877 31.0959C19.908 31.0959 20.2489 30.7551 20.2489 30.3347V29.396C20.2489 28.9756 19.908 28.6348 19.4877 28.6348C19.0673 28.6348 18.7264 28.9756 18.7264 29.396Z" fill="#FF5C15"/>
<path d="M15.6844 14.6079C15.3871 14.3107 14.9052 14.3107 14.6078 14.6079C14.3106 14.9051 14.3106 15.3871 14.6078 15.6845L17.1877 18.2643C16.99 18.6328 16.8776 19.0535 16.8776 19.5C16.8776 20.946 18.0539 22.1224 19.5 22.1224C20.946 22.1224 22.1224 20.946 22.1224 19.5C22.1224 19.0535 22.0099 18.6328 21.8122 18.2643L27.0177 13.0589C27.315 12.7616 27.315 12.2796 27.0177 11.9823C26.7204 11.6851 26.2385 11.6851 25.9411 11.9823L20.7357 17.1877C20.3672 16.99 19.9465 16.8776 19.5 16.8776C19.0534 16.8776 18.6327 16.9901 18.2643 17.1877L15.6844 14.6079ZM20.5999 19.5C20.5999 20.1065 20.1065 20.6 19.5 20.6C18.8934 20.6 18.4 20.1065 18.4 19.5C18.4 18.8935 18.8934 18.4 19.5 18.4C20.1065 18.4 20.5999 18.8935 20.5999 19.5Z" fill="#FF5C15"/>
<path d="M10.2954 10.2954C10.4377 10.1538 10.5191 9.95739 10.5191 9.75719C10.5191 9.55699 10.4377 9.36136 10.2954 9.21901C10.1538 9.0775 9.95807 8.99597 9.75719 8.99597C9.55699 8.99597 9.36059 9.07742 9.21901 9.21901C9.0775 9.3606 8.99597 9.55699 8.99597 9.75719C8.99597 9.95815 9.07742 10.1538 9.21901 10.2954C9.36059 10.4369 9.55699 10.5184 9.75719 10.5184C9.95807 10.5184 10.1538 10.4369 10.2954 10.2954Z" fill="#FF5C15"/>
<path d="M24.7729 2.27439C24.974 2.27439 25.1704 2.19363 25.3119 2.05135C25.4535 1.90977 25.535 1.71406 25.535 1.51317C25.535 1.31297 25.4535 1.11658 25.3119 0.97499C25.1704 0.83348 24.974 0.751953 24.7729 0.751953C24.5727 0.751953 24.3763 0.833404 24.2348 0.97499C24.0932 1.11658 24.0117 1.31297 24.0117 1.51317C24.0117 1.71413 24.0932 1.90977 24.2348 2.05135C24.3763 2.19363 24.5727 2.27439 24.7729 2.27439Z" fill="#FF5C15"/>
</svg>
