<svg width="39" height="39" viewBox="0 0 39 39" fill="none" xmlns="http://www.w3.org/2000/svg">
<path d="M31.8845 25.6466C30.9316 25.6466 30.0263 26.0199 29.3433 26.6949C28.6604 27.3778 28.2792 28.2673 28.2792 29.2202C28.2792 30.1732 28.6524 31.0626 29.3433 31.7456C30.0342 32.4206 30.9316 32.7938 31.8845 32.7938C33.8381 32.7938 35.4264 31.1897 35.4264 29.2202C35.4264 27.2508 33.8381 25.6466 31.8845 25.6466ZM31.8845 31.2056C30.7886 31.2056 29.8674 30.3003 29.8674 29.2202C29.8674 28.1402 30.7886 27.2349 31.8845 27.2349C32.9646 27.2349 33.8381 28.1243 33.8381 29.2202C33.8381 30.3161 32.9646 31.2056 31.8845 31.2056ZM32.8057 13.7425C32.6628 13.6075 32.4722 13.536 32.2737 13.536H28.1998C27.763 13.536 27.4056 13.8934 27.4056 14.3302V20.8421C27.4056 21.2789 27.763 21.6362 28.1998 21.6362H34.664C35.1008 21.6362 35.4582 21.2789 35.4582 20.8421V16.4823C35.4582 16.2599 35.3629 16.0455 35.1961 15.8946L32.8057 13.7425ZM33.8699 20.048H28.9939V15.1164H31.964L33.8699 16.8317V20.048ZM12.4918 25.6466C11.5388 25.6466 10.6335 26.0199 9.95052 26.6949C9.26756 27.3778 8.88638 28.2673 8.88638 29.2202C8.88638 30.1732 9.25962 31.0626 9.95052 31.7456C10.6414 32.4206 11.5388 32.7938 12.4918 32.7938C14.4453 32.7938 16.0336 31.1897 16.0336 29.2202C16.0336 27.2508 14.4453 25.6466 12.4918 25.6466ZM12.4918 31.2056C11.3958 31.2056 10.4746 30.3003 10.4746 29.2202C10.4746 28.1402 11.3958 27.2349 12.4918 27.2349C13.5718 27.2349 14.4453 28.1243 14.4453 29.2202C14.4453 30.3161 13.5718 31.2056 12.4918 31.2056ZM7.19487 26.6234H5.59866V24.511C5.59866 24.0742 5.2413 23.7169 4.80452 23.7169C4.36775 23.7169 4.01039 24.0742 4.01039 24.511V27.4175C4.01039 27.8543 4.36775 28.2117 4.80452 28.2117H7.19487C7.63164 28.2117 7.989 27.8543 7.989 27.4175C7.989 26.9808 7.63164 26.6234 7.19487 26.6234ZM11.2211 22.2954C11.2211 21.8586 10.8638 21.5012 10.427 21.5012H0.794136C0.357361 21.5012 0 21.8586 0 22.2954C0 22.7321 0.357361 23.0895 0.794136 23.0895H10.427C10.8638 23.0895 11.2211 22.7401 11.2211 22.2954ZM2.40623 19.4285L12.0391 19.4841C12.4759 19.4841 12.8332 19.1347 12.8412 18.6979C12.8491 18.2532 12.4918 17.8959 12.055 17.8959L2.42211 17.8403C2.41417 17.8403 2.41417 17.8403 2.41417 17.8403C1.9774 17.8403 1.62004 18.1897 1.62004 18.6265C1.6121 19.0712 1.96946 19.4285 2.40623 19.4285ZM4.02627 15.8232H13.6591C14.0959 15.8232 14.4533 15.4658 14.4533 15.029C14.4533 14.5922 14.0959 14.2349 13.6591 14.2349H4.02627C3.58949 14.2349 3.23213 14.5922 3.23213 15.029C3.23213 15.4658 3.58949 15.8232 4.02627 15.8232ZM38.7062 14.7511L33.0202 10.0419C32.8772 9.92273 32.7025 9.8592 32.5119 9.8592H25.8253V7.00031C25.8253 6.56354 25.4679 6.20618 25.0312 6.20618H4.80452C4.36775 6.20618 4.01039 6.56354 4.01039 7.00031V12.8134C4.01039 13.2502 4.36775 13.6075 4.80452 13.6075C5.2413 13.6075 5.59866 13.2502 5.59866 12.8134V7.79445H24.245V26.6234H17.733C17.2963 26.6234 16.9389 26.9808 16.9389 27.4175C16.9389 27.8543 17.2963 28.2117 17.733 28.2117H27.4294C27.8662 28.2117 28.2236 27.8543 28.2236 27.4175C28.2236 26.9808 27.8662 26.6234 27.4294 26.6234H25.8332V11.4475H32.234L37.4117 15.7358L37.3561 26.6075H36.5302C36.0935 26.6075 35.7361 26.9649 35.7361 27.4017C35.7361 27.8384 36.0935 28.1958 36.5302 28.1958H38.1423C38.5791 28.1958 38.9365 27.8464 38.9365 27.4096L39 15.3705C38.9921 15.1323 38.8888 14.902 38.7062 14.7511Z" fill="#FF5C15"/>
</svg>
